<svg xmlns="http://www.w3.org/2000/svg" viewBox="0 0 96 96" width="96" height="96">
  <style>
    svg {
      background: transparent;
      shape-rendering: crispEdges;
      image-rendering: pixelated;
      overflow: visible;
    }

    .bird {
      animation: birdBob 760ms steps(4, end) infinite;
      transform-origin: 48px 49px;
    }

    .wing-left {
      animation: flapLeft 420ms steps(4, end) infinite;
      transform-box: fill-box;
      transform-origin: 61px 39px;
    }

    .wing-right {
      animation: flapRight 420ms steps(4, end) infinite;
      transform-box: fill-box;
      transform-origin: 35px 40px;
    }

    .cheek {
      animation: cheekBlink 1680ms steps(1, end) infinite;
    }

    @keyframes birdBob {
      0%, 100% { transform: translateY(1px); }
      50% { transform: translateY(-2px); }
    }

    @keyframes flapLeft {
      0%, 100% { transform: rotate(24deg) translate(0, 2px); }
      50% { transform: rotate(-32deg) translate(-2px, -7px); }
    }

    @keyframes flapRight {
      0%, 100% { transform: rotate(-18deg) translate(0, 2px); }
      50% { transform: rotate(28deg) translate(2px, -5px); }
    }

    @keyframes cheekBlink {
      0%, 88%, 100% { opacity: 0.92; }
      89%, 91% { opacity: 0.55; }
    }
  </style>

  <g class="bird">
    <g class="wing-right" opacity="0.82">
      <path d="M35 35h-7v4h-6v6h-5v8h5v5h8v-5h6v-9h5v-6h-6z" fill="#d6dc45"/>
      <path d="M28 39h-6v6h-5v5h8v-4h8v-5h-5z" fill="#fff04b"/>
      <path d="M24 51h8v4h-8z" fill="#6aa942"/>
      <path d="M18 55h10v5H18z" fill="#2f8f70"/>
      <path d="M22 45h7v3h-7zM24 53h7v3h-7z" fill="#665b2a" opacity="0.55"/>
    </g>

    <g class="wing-left" opacity="0.88">
      <path d="M61 34h8v4h7v6h5v8h-5v6h-9v-5h-7v-8h-5v-7h6z" fill="#dce34b"/>
      <path d="M68 38h8v6h5v5h-9v-4h-9v-5h5z" fill="#fff24c"/>
      <path d="M66 51h9v5h-9z" fill="#6dab42"/>
      <path d="M70 56h9v5h-9z" fill="#2f9174"/>
      <path d="M66 45h8v3h-8zM64 53h8v3h-8z" fill="#665b2a" opacity="0.55"/>
    </g>

    <path d="M34 28h7v-5h17v5h7v8h5v22h-4v9h-7v6H39v-6h-7v-9h-4V36h6z" fill="#95cf38"/>
    <path d="M36 28h6v-5h16v5h6v8h4v16H31V36h5z" fill="#ffe940"/>
    <path d="M33 52h35v7h-3v8h-7v5H40v-5h-7v-8h-3v-7z" fill="#76bd32"/>
    <path d="M39 25h19v3H39zM34 34h31v4H34z" fill="#fff36a" opacity="0.5"/>
    <path d="M38 60h20v4H38zM42 67h13v4H42z" fill="#5cab30" opacity="0.58"/>

    <path d="M33 64h-7v5h-5v6h-5v6h8v-3h8v-4h8v-6h-7z" fill="#248d74"/>
    <path d="M28 66h-7v5h-5v5h8v-3h7z" fill="#37a67e"/>
    <path d="M24 75h9v4h-9z" fill="#156f68"/>

    <rect x="38" y="39" width="6" height="6" fill="#17201c"/>
    <rect x="40" y="39" width="2" height="2" fill="#fff7b1"/>
    <rect x="57" y="39" width="6" height="6" fill="#17201c"/>
    <rect x="59" y="39" width="2" height="2" fill="#fff7b1"/>
    <rect x="36" y="34" width="7" height="2" fill="#6a6b2c"/>
    <rect x="58" y="34" width="7" height="2" fill="#6a6b2c"/>

    <g class="cheek">
      <path d="M34 47h5v4h-3v3h-4v-5h2z" fill="#6d66d8" opacity="0.82"/>
      <path d="M62 47h5v5h-4v3h-3v-5h2z" fill="#6d66d8" opacity="0.82"/>
      <rect x="39" y="55" width="2" height="3" fill="#1c241b"/>
      <rect x="57" y="55" width="2" height="3" fill="#1c241b"/>
      <rect x="34" y="57" width="2" height="3" fill="#1c241b"/>
      <rect x="64" y="57" width="2" height="3" fill="#1c241b"/>
    </g>

    <path d="M46 44h9v4h4v8h-4v5h-8v-5h-4v-8h3z" fill="#f39a32"/>
    <path d="M46 44h9v4h-9z" fill="#ffc0b8"/>
    <path d="M48 47h2v2h-2zM53 47h2v2h-2z" fill="#6b3d43"/>
    <path d="M46 49h13v4H46z" fill="#f9782c"/>
    <path d="M48 56h8v5h-8z" fill="#d45525"/>
    <path d="M43 76h4v5h-4zM55 76h4v5h-4z" fill="#c66a52"/>
  </g>
</svg>
